<svg width="322" height="45" viewBox="0 0 322 45" fill="none" xmlns="http://www.w3.org/2000/svg">
<g filter="url(#filter0_d_1_12)">
<mask id="path-1-outside-1_1_12" maskUnits="userSpaceOnUse" x="0" y="-3" width="321" height="43" fill="black">
<rect fill="white" y="-3" width="321" height="43"/>
<path d="M4.056 36L9.624 0.959999H16.824L14.664 14.4H22.728L24.888 0.959999H32.088L26.52 36H19.32L21.672 21.12H13.608L11.256 36H4.056ZM44.0213 36.48C41.6853 36.48 39.7173 36.048 38.1172 35.184C36.5173 34.288 35.3653 33.056 34.6613 31.488C33.9893 29.888 33.8133 28.032 34.1333 25.92L35.1413 19.68C35.4933 17.568 36.2613 15.728 37.4453 14.16C38.6613 12.56 40.1973 11.328 42.0533 10.464C43.9413 9.568 46.0533 9.12 48.3893 9.12C50.7253 9.12 52.6773 9.568 54.2453 10.464C55.8453 11.328 56.9813 12.56 57.6533 14.16C58.3573 15.728 58.5333 17.568 58.1813 19.68L57.4133 24.48H41.2373L40.9973 25.92C40.7413 27.584 40.9493 28.848 41.6213 29.712C42.2933 30.544 43.4293 30.96 45.0293 30.96C46.1493 30.96 47.0773 30.768 47.8133 30.384C48.5813 30 49.1253 29.472 49.4453 28.8H56.5013C55.8933 30.336 54.9653 31.68 53.7173 32.832C52.4693 33.984 51.0133 34.88 49.3493 35.52C47.7173 36.16 45.9413 36.48 44.0213 36.48ZM51.1253 20.784L51.3173 19.584C51.5733 17.952 51.3973 16.704 50.7893 15.84C50.1813 14.976 49.0933 14.544 47.5253 14.544C45.9573 14.544 44.7093 14.992 43.7812 15.888C42.8533 16.784 42.2613 18.048 42.0053 19.68L41.8613 20.4L51.7013 20.304L51.1253 20.784ZM70.0185 36.48C67.3625 36.48 65.3785 35.552 64.0665 33.696C62.7545 31.84 62.3545 29.328 62.8665 26.16L63.9705 19.44C64.3225 17.328 64.9785 15.504 65.9385 13.968C66.8985 12.432 68.0985 11.248 69.5385 10.416C71.0105 9.552 72.6265 9.12 74.3865 9.12C76.5625 9.12 78.1625 9.76 79.1865 11.04C80.2425 12.288 80.5945 14.048 80.2425 16.32L78.8025 14.64H80.4825L81.1065 9.6H88.2585L84.0825 36H77.1225L77.9385 30.96H76.2585L78.1785 29.28C77.8265 31.552 76.9145 33.328 75.4425 34.608C74.0025 35.856 72.1945 36.48 70.0185 36.48ZM73.6185 30.24C74.9305 30.24 76.0025 29.872 76.8345 29.136C77.6985 28.368 78.2425 27.296 78.4665 25.92L79.4745 19.68C79.6985 18.304 79.4905 17.248 78.8505 16.512C78.2425 15.744 77.2825 15.36 75.9705 15.36C74.6265 15.36 73.5385 15.744 72.7065 16.512C71.8745 17.248 71.3465 18.304 71.1225 19.68L70.1145 25.92C69.8905 27.296 70.0825 28.368 70.6905 29.136C71.2985 29.872 72.2745 30.24 73.6185 30.24ZM105.952 36C103.136 36 101.008 35.152 99.5678 33.456C98.1598 31.728 97.6638 29.456 98.0798 26.64L101.104 7.44H92.9438L93.9998 0.959999H109.36L105.28 26.64C105.152 27.504 105.296 28.208 105.712 28.752C106.16 29.264 106.816 29.52 107.68 29.52H115.36L114.352 36H105.952ZM133.293 36C130.605 36 128.621 35.232 127.341 33.696C126.061 32.16 125.629 30.048 126.045 27.36L127.821 16.08H120.861L121.869 9.6H128.829L129.981 2.4H137.181L136.029 9.6H145.869L144.861 16.08H135.021L133.245 27.36C132.989 28.8 133.581 29.52 135.021 29.52H142.221L141.213 36H133.293ZM147.962 36L153.53 0.959999H160.73L159.338 9.6L158.282 14.64H160.394L158.042 16.32C158.394 14.08 159.306 12.32 160.778 11.04C162.282 9.76 164.122 9.12 166.298 9.12C168.858 9.12 170.762 10.016 172.01 11.808C173.29 13.6 173.69 15.984 173.21 18.96L170.522 36H163.322L165.914 19.68C166.138 18.304 165.946 17.248 165.338 16.512C164.73 15.744 163.77 15.36 162.458 15.36C161.178 15.36 160.122 15.744 159.29 16.512C158.49 17.248 157.978 18.304 157.754 19.68L155.162 36H147.962ZM216.853 36.48C214.517 36.48 212.533 36.048 210.901 35.184C209.269 34.288 208.101 33.056 207.397 31.488C206.693 29.888 206.501 28.032 206.821 25.92L209.173 11.04C209.525 8.896 210.309 7.04 211.525 5.472C212.741 3.904 214.293 2.688 216.181 1.824C218.101 0.927999 220.229 0.48 222.565 0.48C224.933 0.48 226.917 0.927999 228.517 1.824C230.117 2.688 231.285 3.904 232.021 5.472C232.757 7.04 232.949 8.896 232.597 11.04H225.397C225.653 9.632 225.445 8.56 224.773 7.824C224.101 7.088 223.045 6.72 221.605 6.72C220.165 6.72 218.997 7.088 218.101 7.824C217.205 8.56 216.629 9.632 216.373 11.04L214.021 25.92C213.797 27.296 214.021 28.368 214.693 29.136C215.365 29.872 216.421 30.24 217.861 30.24C219.301 30.24 220.469 29.872 221.365 29.136C222.261 28.368 222.821 27.296 223.045 25.92H230.245C229.925 28.032 229.141 29.888 227.893 31.488C226.677 33.056 225.125 34.288 223.237 35.184C221.349 36.048 219.221 36.48 216.853 36.48ZM242.706 36.48C240.05 36.48 238.066 35.552 236.754 33.696C235.442 31.84 235.042 29.328 235.554 26.16L236.658 19.44C237.01 17.328 237.666 15.504 238.626 13.968C239.586 12.432 240.786 11.248 242.226 10.416C243.698 9.552 245.314 9.12 247.074 9.12C249.25 9.12 250.85 9.76 251.874 11.04C252.93 12.288 253.282 14.048 252.93 16.32L251.49 14.64H253.17L253.794 9.6H260.946L256.77 36H249.81L250.626 30.96H248.946L250.866 29.28C250.514 31.552 249.602 33.328 248.13 34.608C246.69 35.856 244.882 36.48 242.706 36.48ZM246.306 30.24C247.618 30.24 248.69 29.872 249.522 29.136C250.386 28.368 250.93 27.296 251.154 25.92L252.162 19.68C252.386 18.304 252.178 17.248 251.538 16.512C250.93 15.744 249.97 15.36 248.658 15.36C247.314 15.36 246.226 15.744 245.394 16.512C244.562 17.248 244.034 18.304 243.81 19.68L242.802 25.92C242.578 27.296 242.77 28.368 243.378 29.136C243.986 29.872 244.962 30.24 246.306 30.24ZM263.855 36L268.031 9.6H274.751L273.935 14.64H275.759L273.215 17.712C273.663 14.864 274.655 12.72 276.191 11.28C277.759 9.84 279.807 9.12 282.335 9.12C285.247 9.12 287.359 10 288.671 11.76C290.015 13.52 290.431 16 289.919 19.2L289.583 21.36H281.903L282.191 19.68C282.415 18.24 282.191 17.12 281.519 16.32C280.879 15.52 279.903 15.12 278.591 15.12C277.215 15.12 276.095 15.52 275.231 16.32C274.399 17.12 273.871 18.24 273.647 19.68L271.055 36H263.855ZM303.053 36.48C300.717 36.48 298.749 36.048 297.148 35.184C295.549 34.288 294.397 33.056 293.693 31.488C293.021 29.888 292.845 28.032 293.165 25.92L294.173 19.68C294.525 17.568 295.293 15.728 296.477 14.16C297.693 12.56 299.229 11.328 301.085 10.464C302.973 9.568 305.085 9.12 307.421 9.12C309.757 9.12 311.709 9.568 313.277 10.464C314.877 11.328 316.013 12.56 316.685 14.16C317.389 15.728 317.565 17.568 317.213 19.68L316.445 24.48H300.269L300.029 25.92C299.773 27.584 299.981 28.848 300.653 29.712C301.325 30.544 302.461 30.96 304.061 30.96C305.181 30.96 306.109 30.768 306.845 30.384C307.613 30 308.157 29.472 308.477 28.8H315.533C314.925 30.336 313.997 31.68 312.749 32.832C311.501 33.984 310.045 34.88 308.381 35.52C306.749 36.16 304.973 36.48 303.053 36.48ZM310.157 20.784L310.349 19.584C310.605 17.952 310.429 16.704 309.821 15.84C309.213 14.976 308.125 14.544 306.557 14.544C304.989 14.544 303.741 14.992 302.812 15.888C301.885 16.784 301.293 18.048 301.037 19.68L300.893 20.4L310.733 20.304L310.157 20.784Z"/>
</mask>
<path d="M4.056 36L9.624 0.959999H16.824L14.664 14.4H22.728L24.888 0.959999H32.088L26.52 36H19.32L21.672 21.12H13.608L11.256 36H4.056ZM44.0213 36.48C41.6853 36.48 39.7173 36.048 38.1172 35.184C36.5173 34.288 35.3653 33.056 34.6613 31.488C33.9893 29.888 33.8133 28.032 34.1333 25.92L35.1413 19.68C35.4933 17.568 36.2613 15.728 37.4453 14.16C38.6613 12.56 40.1973 11.328 42.0533 10.464C43.9413 9.568 46.0533 9.12 48.3893 9.12C50.7253 9.12 52.6773 9.568 54.2453 10.464C55.8453 11.328 56.9813 12.56 57.6533 14.16C58.3573 15.728 58.5333 17.568 58.1813 19.68L57.4133 24.48H41.2373L40.9973 25.92C40.7413 27.584 40.9493 28.848 41.6213 29.712C42.2933 30.544 43.4293 30.96 45.0293 30.96C46.1493 30.96 47.0773 30.768 47.8133 30.384C48.5813 30 49.1253 29.472 49.4453 28.8H56.5013C55.8933 30.336 54.9653 31.68 53.7173 32.832C52.4693 33.984 51.0133 34.88 49.3493 35.52C47.7173 36.16 45.9413 36.48 44.0213 36.48ZM51.1253 20.784L51.3173 19.584C51.5733 17.952 51.3973 16.704 50.7893 15.84C50.1813 14.976 49.0933 14.544 47.5253 14.544C45.9573 14.544 44.7093 14.992 43.7812 15.888C42.8533 16.784 42.2613 18.048 42.0053 19.68L41.8613 20.4L51.7013 20.304L51.1253 20.784ZM70.0185 36.48C67.3625 36.48 65.3785 35.552 64.0665 33.696C62.7545 31.84 62.3545 29.328 62.8665 26.16L63.9705 19.44C64.3225 17.328 64.9785 15.504 65.9385 13.968C66.8985 12.432 68.0985 11.248 69.5385 10.416C71.0105 9.552 72.6265 9.12 74.3865 9.12C76.5625 9.12 78.1625 9.76 79.1865 11.04C80.2425 12.288 80.5945 14.048 80.2425 16.32L78.8025 14.64H80.4825L81.1065 9.6H88.2585L84.0825 36H77.1225L77.9385 30.96H76.2585L78.1785 29.28C77.8265 31.552 76.9145 33.328 75.4425 34.608C74.0025 35.856 72.1945 36.48 70.0185 36.48ZM73.6185 30.24C74.9305 30.24 76.0025 29.872 76.8345 29.136C77.6985 28.368 78.2425 27.296 78.4665 25.92L79.4745 19.68C79.6985 18.304 79.4905 17.248 78.8505 16.512C78.2425 15.744 77.2825 15.36 75.9705 15.36C74.6265 15.36 73.5385 15.744 72.7065 16.512C71.8745 17.248 71.3465 18.304 71.1225 19.68L70.1145 25.92C69.8905 27.296 70.0825 28.368 70.6905 29.136C71.2985 29.872 72.2745 30.24 73.6185 30.24ZM105.952 36C103.136 36 101.008 35.152 99.5678 33.456C98.1598 31.728 97.6638 29.456 98.0798 26.64L101.104 7.44H92.9438L93.9998 0.959999H109.36L105.28 26.64C105.152 27.504 105.296 28.208 105.712 28.752C106.16 29.264 106.816 29.52 107.68 29.52H115.36L114.352 36H105.952ZM133.293 36C130.605 36 128.621 35.232 127.341 33.696C126.061 32.16 125.629 30.048 126.045 27.36L127.821 16.08H120.861L121.869 9.6H128.829L129.981 2.4H137.181L136.029 9.6H145.869L144.861 16.08H135.021L133.245 27.36C132.989 28.8 133.581 29.52 135.021 29.52H142.221L141.213 36H133.293ZM147.962 36L153.53 0.959999H160.73L159.338 9.6L158.282 14.64H160.394L158.042 16.32C158.394 14.08 159.306 12.32 160.778 11.04C162.282 9.76 164.122 9.12 166.298 9.12C168.858 9.12 170.762 10.016 172.01 11.808C173.29 13.6 173.69 15.984 173.21 18.96L170.522 36H163.322L165.914 19.68C166.138 18.304 165.946 17.248 165.338 16.512C164.73 15.744 163.77 15.36 162.458 15.36C161.178 15.36 160.122 15.744 159.29 16.512C158.49 17.248 157.978 18.304 157.754 19.68L155.162 36H147.962ZM216.853 36.48C214.517 36.48 212.533 36.048 210.901 35.184C209.269 34.288 208.101 33.056 207.397 31.488C206.693 29.888 206.501 28.032 206.821 25.92L209.173 11.04C209.525 8.896 210.309 7.04 211.525 5.472C212.741 3.904 214.293 2.688 216.181 1.824C218.101 0.927999 220.229 0.48 222.565 0.48C224.933 0.48 226.917 0.927999 228.517 1.824C230.117 2.688 231.285 3.904 232.021 5.472C232.757 7.04 232.949 8.896 232.597 11.04H225.397C225.653 9.632 225.445 8.56 224.773 7.824C224.101 7.088 223.045 6.72 221.605 6.72C220.165 6.72 218.997 7.088 218.101 7.824C217.205 8.56 216.629 9.632 216.373 11.04L214.021 25.92C213.797 27.296 214.021 28.368 214.693 29.136C215.365 29.872 216.421 30.24 217.861 30.24C219.301 30.24 220.469 29.872 221.365 29.136C222.261 28.368 222.821 27.296 223.045 25.92H230.245C229.925 28.032 229.141 29.888 227.893 31.488C226.677 33.056 225.125 34.288 223.237 35.184C221.349 36.048 219.221 36.48 216.853 36.48ZM242.706 36.48C240.05 36.48 238.066 35.552 236.754 33.696C235.442 31.84 235.042 29.328 235.554 26.16L236.658 19.44C237.01 17.328 237.666 15.504 238.626 13.968C239.586 12.432 240.786 11.248 242.226 10.416C243.698 9.552 245.314 9.12 247.074 9.12C249.25 9.12 250.85 9.76 251.874 11.04C252.93 12.288 253.282 14.048 252.93 16.32L251.49 14.64H253.17L253.794 9.6H260.946L256.77 36H249.81L250.626 30.96H248.946L250.866 29.28C250.514 31.552 249.602 33.328 248.13 34.608C246.69 35.856 244.882 36.48 242.706 36.48ZM246.306 30.24C247.618 30.24 248.69 29.872 249.522 29.136C250.386 28.368 250.93 27.296 251.154 25.92L252.162 19.68C252.386 18.304 252.178 17.248 251.538 16.512C250.93 15.744 249.97 15.36 248.658 15.36C247.314 15.36 246.226 15.744 245.394 16.512C244.562 17.248 244.034 18.304 243.81 19.68L242.802 25.92C242.578 27.296 242.77 28.368 243.378 29.136C243.986 29.872 244.962 30.24 246.306 30.24ZM263.855 36L268.031 9.6H274.751L273.935 14.64H275.759L273.215 17.712C273.663 14.864 274.655 12.72 276.191 11.28C277.759 9.84 279.807 9.12 282.335 9.12C285.247 9.12 287.359 10 288.671 11.76C290.015 13.52 290.431 16 289.919 19.2L289.583 21.36H281.903L282.191 19.68C282.415 18.24 282.191 17.12 281.519 16.32C280.879 15.52 279.903 15.12 278.591 15.12C277.215 15.12 276.095 15.52 275.231 16.32C274.399 17.12 273.871 18.24 273.647 19.68L271.055 36H263.855ZM303.053 36.48C300.717 36.48 298.749 36.048 297.148 35.184C295.549 34.288 294.397 33.056 293.693 31.488C293.021 29.888 292.845 28.032 293.165 25.92L294.173 19.68C294.525 17.568 295.293 15.728 296.477 14.16C297.693 12.56 299.229 11.328 301.085 10.464C302.973 9.568 305.085 9.12 307.421 9.12C309.757 9.12 311.709 9.568 313.277 10.464C314.877 11.328 316.013 12.56 316.685 14.16C317.389 15.728 317.565 17.568 317.213 19.68L316.445 24.48H300.269L300.029 25.92C299.773 27.584 299.981 28.848 300.653 29.712C301.325 30.544 302.461 30.96 304.061 30.96C305.181 30.96 306.109 30.768 306.845 30.384C307.613 30 308.157 29.472 308.477 28.8H315.533C314.925 30.336 313.997 31.68 312.749 32.832C311.501 33.984 310.045 34.88 308.381 35.52C306.749 36.16 304.973 36.48 303.053 36.48ZM310.157 20.784L310.349 19.584C310.605 17.952 310.429 16.704 309.821 15.84C309.213 14.976 308.125 14.544 306.557 14.544C304.989 14.544 303.741 14.992 302.812 15.888C301.885 16.784 301.293 18.048 301.037 19.68L300.893 20.4L310.733 20.304L310.157 20.784Z" fill="white"/>
<path d="M4.056 36L1.09317 35.5292L0.541648 39H4.056V36ZM9.624 0.959999V-2.04H7.06307L6.66117 0.489194L9.624 0.959999ZM16.824 0.959999L19.786 1.43603L20.3446 -2.04H16.824V0.959999ZM14.664 14.4L11.702 13.924L11.1434 17.4H14.664V14.4ZM22.728 14.4V17.4H25.2844L25.69 14.876L22.728 14.4ZM24.888 0.959999V-2.04H22.3316L21.926 0.483965L24.888 0.959999ZM32.088 0.959999L35.0508 1.4308L35.6024 -2.04H32.088V0.959999ZM26.52 36V39H29.0809L29.4828 36.4708L26.52 36ZM19.32 36L16.3568 35.5316L15.8086 39H19.32V36ZM21.672 21.12L24.6352 21.5884L25.1834 18.12H21.672V21.12ZM13.608 21.12V18.12H11.0449L10.6448 20.6516L13.608 21.12ZM11.256 36V39H13.8191L14.2192 36.4684L11.256 36ZM7.01883 36.4708L12.5868 1.4308L6.66117 0.489194L1.09317 35.5292L7.01883 36.4708ZM9.624 3.96H16.824V-2.04H9.624V3.96ZM13.862 0.483965L11.702 13.924L17.626 14.876L19.786 1.43603L13.862 0.483965ZM14.664 17.4H22.728V11.4H14.664V17.4ZM25.69 14.876L27.85 1.43603L21.926 0.483965L19.766 13.924L25.69 14.876ZM24.888 3.96H32.088V-2.04H24.888V3.96ZM29.1252 0.489194L23.5572 35.5292L29.4828 36.4708L35.0508 1.4308L29.1252 0.489194ZM26.52 33H19.32V39H26.52V33ZM22.2832 36.4684L24.6352 21.5884L18.7088 20.6516L16.3568 35.5316L22.2832 36.4684ZM21.672 18.12H13.608V24.12H21.672V18.12ZM10.6448 20.6516L8.29279 35.5316L14.2192 36.4684L16.5712 21.5884L10.6448 20.6516ZM11.256 33H4.056V39H11.256V33ZM38.1172 35.184L36.6514 37.8015L36.6715 37.8128L36.6918 37.8237L38.1172 35.184ZM34.6613 31.488L31.8953 32.6497L31.9095 32.6834L31.9244 32.7168L34.6613 31.488ZM34.1332 25.92L31.1716 25.4416L31.1693 25.4561L31.1671 25.4706L34.1332 25.92ZM35.1413 19.68L32.1821 19.1868L32.1808 19.1942L32.1796 19.2016L35.1413 19.68ZM37.4453 14.16L35.0568 12.3447L35.0511 12.3522L37.4453 14.16ZM42.0532 10.464L43.3193 13.1837L43.3294 13.179L43.3395 13.1743L42.0532 10.464ZM54.2453 10.464L52.7568 13.0687L52.7881 13.0866L52.8198 13.1037L54.2453 10.464ZM57.6533 14.16L54.8873 15.3217L54.9015 15.3554L54.9164 15.3888L57.6533 14.16ZM58.1813 19.68L55.2221 19.1868L55.2205 19.1964L55.2189 19.206L58.1813 19.68ZM57.4133 24.48V27.48H59.9714L60.3756 24.954L57.4133 24.48ZM41.2373 24.48V21.48H38.6959L38.2781 23.9868L41.2373 24.48ZM40.9972 25.92L38.0381 25.4268L38.035 25.4453L38.0321 25.4638L40.9972 25.92ZM41.6213 29.712L39.2532 31.5538L39.2701 31.5756L39.2874 31.597L41.6213 29.712ZM47.8133 30.384L46.4716 27.7007L46.4485 27.7123L46.4256 27.7242L47.8133 30.384ZM49.4453 28.8V25.8H47.5511L46.7367 27.5102L49.4453 28.8ZM56.5013 28.8L59.2907 29.9041L60.9152 25.8H56.5013V28.8ZM53.7173 32.832L55.7521 35.0364L53.7173 32.832ZM49.3493 35.52L48.2723 32.72L48.2631 32.7235L48.254 32.7271L49.3493 35.52ZM51.1253 20.784L48.1629 20.31L46.8987 28.2112L53.0458 23.0887L51.1253 20.784ZM51.3172 19.584L54.2796 20.058L54.281 20.0489L51.3172 19.584ZM50.7893 15.84L53.2427 14.1135L53.2427 14.1135L50.7893 15.84ZM43.7812 15.888L41.6975 13.7298V13.7298L43.7812 15.888ZM42.0052 19.68L44.947 20.2683L44.9593 20.2069L44.969 20.1449L42.0052 19.68ZM41.8613 20.4L38.9195 19.8116L38.1947 23.4359L41.8905 23.3999L41.8613 20.4ZM51.7013 20.304L53.6218 22.6087L60.0857 17.2221L51.672 17.3041L51.7013 20.304ZM44.0213 33.48C42.045 33.48 40.5976 33.1139 39.5427 32.5443L36.6918 37.8237C38.8369 38.982 41.3255 39.48 44.0213 39.48V33.48ZM39.5831 32.5665C38.5048 31.9627 37.8202 31.1995 37.3981 30.2592L31.9244 32.7168C32.9103 34.9125 34.5297 36.6133 36.6514 37.8015L39.5831 32.5665ZM37.4272 30.3263C37.0131 29.3404 36.843 28.0618 37.0994 26.3694L31.1671 25.4706C30.7835 28.0022 30.9654 30.4356 31.8953 32.6497L37.4272 30.3263ZM37.0949 26.3984L38.1029 20.1584L32.1796 19.2016L31.1716 25.4416L37.0949 26.3984ZM38.1004 20.1732C38.3802 18.4948 38.9726 17.1157 39.8394 15.9678L35.0511 12.3522C33.5499 14.3403 32.6063 16.6412 32.1821 19.1868L38.1004 20.1732ZM39.8337 15.9753C40.749 14.771 41.8968 13.846 43.3193 13.1837L40.7872 7.74425C38.4977 8.81004 36.5735 10.349 35.0568 12.3447L39.8337 15.9753ZM43.3395 13.1743C44.7804 12.4904 46.4454 12.12 48.3893 12.12V6.12C45.6611 6.12 43.1021 6.64555 40.767 7.75372L43.3395 13.1743ZM48.3893 12.12C50.3527 12.12 51.7564 12.497 52.7568 13.0687L55.7337 7.85927C53.5981 6.63896 51.0978 6.12 48.3893 6.12V12.12ZM52.8198 13.1037C53.8485 13.6592 54.4938 14.3847 54.8873 15.3217L60.4192 12.9983C59.4687 10.7353 57.842 8.99678 55.6707 7.82428L52.8198 13.1037ZM54.9164 15.3888C55.3247 16.2981 55.5008 17.5144 55.2221 19.1868L61.1404 20.1732C61.5657 17.6216 61.3898 15.1579 60.3901 12.9312L54.9164 15.3888ZM55.2189 19.206L54.4509 24.006L60.3756 24.954L61.1436 20.154L55.2189 19.206ZM57.4133 21.48H41.2373V27.48H57.4133V21.48ZM38.2781 23.9868L38.0381 25.4268L43.9564 26.4132L44.1964 24.9732L38.2781 23.9868ZM38.0321 25.4638C37.7173 27.5103 37.8571 29.7588 39.2532 31.5538L43.9893 27.8702C44.0414 27.9372 43.7652 27.6577 43.9624 26.3762L38.0321 25.4638ZM39.2874 31.597C40.7662 33.4278 42.9834 33.96 45.0293 33.96V27.96C44.4742 27.96 44.159 27.8859 44.0089 27.8309C43.8829 27.7848 43.9064 27.7667 43.9551 27.827L39.2874 31.597ZM45.0293 33.96C46.4713 33.96 47.9134 33.7155 49.201 33.0438L46.4256 27.7242C46.2411 27.8205 45.8272 27.96 45.0293 27.96V33.96ZM49.1549 33.0673C50.425 32.4322 51.5032 31.4561 52.1538 30.0898L46.7367 27.5102C46.733 27.518 46.7286 27.5271 46.7078 27.5473C46.6835 27.5709 46.6165 27.6283 46.4716 27.7007L49.1549 33.0673ZM49.4453 31.8H56.5013V25.8H49.4453V31.8ZM53.7118 27.6959C53.2743 28.8011 52.6091 29.7722 51.6824 30.6276L55.7521 35.0364C57.3214 33.5878 58.5122 31.8709 59.2907 29.9041L53.7118 27.6959ZM51.6824 30.6276C50.7269 31.5096 49.6001 32.2093 48.2723 32.72L50.4262 38.32C52.4264 37.5507 54.2116 36.4584 55.7521 35.0364L51.6824 30.6276ZM48.254 32.7271C47.0028 33.2178 45.6022 33.48 44.0213 33.48V39.48C46.2803 39.48 48.4317 39.1022 50.4445 38.3129L48.254 32.7271ZM54.0876 21.258L54.2796 20.058L48.3549 19.11L48.1629 20.31L54.0876 21.258ZM54.281 20.0489C54.5919 18.067 54.4945 15.8924 53.2427 14.1135L48.3358 17.5665C48.3 17.5156 48.5546 17.837 48.3535 19.1191L54.281 20.0489ZM53.2427 14.1135C51.8371 12.1162 49.5718 11.544 47.5252 11.544V17.544C48.0513 17.544 48.3159 17.6188 48.4102 17.6562C48.4511 17.6725 48.4482 17.6769 48.4217 17.6567C48.3934 17.635 48.3616 17.603 48.3358 17.5665L53.2427 14.1135ZM47.5252 11.544C45.3575 11.544 43.3007 12.1818 41.6975 13.7298L45.865 18.0462C46.1178 17.8022 46.557 17.544 47.5252 17.544V11.544ZM41.6975 13.7298C40.1822 15.1928 39.3701 17.1204 39.0415 19.2151L44.969 20.1449C45.1524 18.9756 45.5243 18.3752 45.865 18.0462L41.6975 13.7298ZM39.0635 19.0916L38.9195 19.8116L44.803 20.9883L44.947 20.2683L39.0635 19.0916ZM41.8905 23.3999L51.7305 23.3039L51.672 17.3041L41.832 17.4001L41.8905 23.3999ZM49.7807 17.9993L49.2047 18.4793L53.0458 23.0887L53.6218 22.6087L49.7807 17.9993ZM64.0665 33.696L66.5162 31.9643L64.0665 33.696ZM62.8665 26.16L59.9062 25.6737L59.9049 25.6814L62.8665 26.16ZM63.9705 19.44L61.0113 18.9468L61.0102 18.9537L63.9705 19.44ZM69.5385 10.416L71.0393 13.0136L71.0482 13.0084L71.0571 13.0032L69.5385 10.416ZM79.1865 11.04L76.8439 12.9141L76.8697 12.9463L76.8963 12.9778L79.1865 11.04ZM80.2425 16.32L77.9647 18.2724L82.2087 23.2237L83.2071 16.7793L80.2425 16.32ZM78.8025 14.64V11.64H72.2798L76.5247 16.5924L78.8025 14.64ZM80.4825 14.64V17.64H83.134L83.4598 15.0086L80.4825 14.64ZM81.1065 9.6V6.6H78.455L78.1292 9.23138L81.1065 9.6ZM88.2585 9.6L91.2217 10.0687L91.7703 6.6H88.2585V9.6ZM84.0825 36V39H86.6453L87.0457 36.4687L84.0825 36ZM77.1225 36L74.1611 35.5205L73.5977 39H77.1225V36ZM77.9385 30.96L80.8999 31.4395L81.4633 27.96H77.9385V30.96ZM76.2585 30.96L74.283 28.7023L68.2742 33.96H76.2585V30.96ZM78.1785 29.28L81.1431 29.7393L82.4048 21.5957L76.203 27.0223L78.1785 29.28ZM75.4425 34.608L77.4073 36.8751L77.411 36.8718L75.4425 34.608ZM76.8345 29.136L78.8222 31.383L78.8276 31.3782L76.8345 29.136ZM78.4665 25.92L81.4275 26.402L81.4281 26.3984L78.4665 25.92ZM79.4745 19.68L76.5135 19.198L76.5129 19.2016L79.4745 19.68ZM78.8505 16.512L76.4984 18.3741L76.5413 18.4283L76.5867 18.4805L78.8505 16.512ZM72.7065 16.512L74.6942 18.759L74.718 18.7379L74.7413 18.7164L72.7065 16.512ZM71.1225 19.68L68.1615 19.198L68.1609 19.2016L71.1225 19.68ZM70.1145 25.92L73.0755 26.402L73.0761 26.3984L70.1145 25.92ZM70.6905 29.136L68.3384 30.9981L68.3577 31.0226L68.3776 31.0466L70.6905 29.136ZM70.0185 33.48C68.1484 33.48 67.1655 32.8828 66.5162 31.9643L61.6168 35.4277C63.5915 38.2212 66.5766 39.48 70.0185 39.48V33.48ZM66.5162 31.9643C65.8164 30.9743 65.3893 29.3534 65.8281 26.6386L59.9049 25.6814C59.3197 29.3026 59.6926 32.7057 61.6168 35.4277L66.5162 31.9643ZM65.8268 26.6463L66.9308 19.9263L61.0102 18.9537L59.9062 25.6737L65.8268 26.6463ZM66.9297 19.9332C67.2284 18.1409 67.7661 16.7042 68.4825 15.558L63.3945 12.378C62.1909 14.3038 61.4166 16.5151 61.0113 18.9468L66.9297 19.9332ZM68.4825 15.558C69.2061 14.4002 70.0614 13.5786 71.0393 13.0136L68.0377 7.8184C66.1356 8.91735 64.5909 10.4638 63.3945 12.378L68.4825 15.558ZM71.0571 13.0032C72.0539 12.4182 73.143 12.12 74.3865 12.12V6.12C72.11 6.12 69.9671 6.68581 68.0199 7.82875L71.0571 13.0032ZM74.3865 12.12C75.9716 12.12 76.5631 12.5631 76.8439 12.9141L81.5291 9.16591C79.7619 6.95688 77.1534 6.12 74.3865 6.12V12.12ZM76.8963 12.9778C77.1911 13.3262 77.5528 14.0859 77.2779 15.8607L83.2071 16.7793C83.6362 14.0101 83.2939 11.2498 81.4767 9.10217L76.8963 12.9778ZM82.5203 14.3676L81.0803 12.6876L76.5247 16.5924L77.9647 18.2724L82.5203 14.3676ZM78.8025 17.64H80.4825V11.64H78.8025V17.64ZM83.4598 15.0086L84.0838 9.96861L78.1292 9.23138L77.5052 14.2714L83.4598 15.0086ZM81.1065 12.6H88.2585V6.6H81.1065V12.6ZM85.2953 9.13128L81.1193 35.5313L87.0457 36.4687L91.2217 10.0687L85.2953 9.13128ZM84.0825 33H77.1225V39H84.0825V33ZM80.0839 36.4795L80.8999 31.4395L74.9771 30.4805L74.1611 35.5205L80.0839 36.4795ZM77.9385 27.96H76.2585V33.96H77.9385V27.96ZM78.234 33.2177L80.154 31.5377L76.203 27.0223L74.283 28.7023L78.234 33.2177ZM75.2139 28.8207C74.95 30.5238 74.3188 31.6095 73.474 32.3442L77.411 36.8718C79.5102 35.0465 80.703 32.5802 81.1431 29.7393L75.2139 28.8207ZM73.4777 32.3409C72.6602 33.0494 71.5817 33.48 70.0185 33.48V39.48C72.8073 39.48 75.3448 38.6626 77.4073 36.8751L73.4777 32.3409ZM73.6185 33.24C75.5227 33.24 77.3452 32.6896 78.8222 31.383L74.8468 26.889C74.6598 27.0544 74.3383 27.24 73.6185 27.24V33.24ZM78.8276 31.3782C80.3072 30.063 81.1164 28.3131 81.4275 26.402L75.5055 25.438C75.3686 26.2789 75.0898 26.673 74.8414 26.8938L78.8276 31.3782ZM81.4281 26.3984L82.4361 20.1584L76.5129 19.2016L75.5049 25.4416L81.4281 26.3984ZM82.4355 20.162C82.7389 18.2982 82.5576 16.2033 81.1143 14.5435L76.5867 18.4805C76.5279 18.413 76.5296 18.3675 76.5431 18.4358C76.5611 18.5274 76.5842 18.7634 76.5135 19.198L82.4355 20.162ZM81.2026 14.6499C79.8465 12.9369 77.8656 12.36 75.9705 12.36V18.36C76.3433 18.36 76.5159 18.4157 76.5603 18.4334C76.5797 18.4412 76.5729 18.4408 76.5523 18.4256C76.5309 18.4099 76.5115 18.3907 76.4984 18.3741L81.2026 14.6499ZM75.9705 12.36C74.022 12.36 72.1588 12.9349 70.6717 14.3076L74.7413 18.7164C74.9182 18.5531 75.231 18.36 75.9705 18.36V12.36ZM70.7188 14.265C69.2476 15.5665 68.4676 17.3175 68.1615 19.198L74.0835 20.162C74.2254 19.2905 74.5014 18.9295 74.6942 18.759L70.7188 14.265ZM68.1609 19.2016L67.1529 25.4416L73.0761 26.3984L74.0841 20.1584L68.1609 19.2016ZM67.1535 25.438C66.8527 27.2857 67.0167 29.3286 68.3384 30.9981L73.0426 27.2739C73.079 27.3198 73.0622 27.3314 73.0435 27.2271C73.0214 27.1039 73.0035 26.8443 73.0755 26.402L67.1535 25.438ZM68.3776 31.0466C69.7605 32.7207 71.761 33.24 73.6185 33.24V27.24C73.2088 27.24 73.0047 27.1825 72.9369 27.1569C72.8914 27.1398 72.9441 27.1536 73.0034 27.2254L68.3776 31.0466ZM99.5677 33.456L97.242 35.351L97.2612 35.3746L97.2809 35.3977L99.5677 33.456ZM98.0798 26.64L95.1163 26.1733L95.1141 26.1874L95.112 26.2016L98.0798 26.64ZM101.104 7.44L104.067 7.90674L104.613 4.44H101.104V7.44ZM92.9437 7.44L89.9828 6.95748L89.4153 10.44H92.9437V7.44ZM93.9997 0.959999V-2.04H91.4491L91.0388 0.477475L93.9997 0.959999ZM109.36 0.959999L112.323 1.43073L112.874 -2.04H109.36V0.959999ZM105.28 26.64L102.317 26.1693L102.314 26.1848L102.312 26.2004L105.28 26.64ZM105.712 28.752L103.329 30.5744L103.389 30.653L103.454 30.7275L105.712 28.752ZM115.36 29.52L118.324 29.9811L118.863 26.52H115.36V29.52ZM114.352 36V39H116.921L117.316 36.4611L114.352 36ZM105.952 33C103.764 33 102.579 32.3676 101.855 31.5143L97.2809 35.3977C99.4364 37.9364 102.508 39 105.952 39V33ZM101.893 31.561C101.157 30.6566 100.718 29.3066 101.048 27.0784L95.112 26.2016C94.6091 29.6054 95.163 32.7994 97.242 35.351L101.893 31.561ZM101.043 27.1067L104.067 7.90674L98.1403 6.97325L95.1163 26.1733L101.043 27.1067ZM101.104 4.44H92.9437V10.44H101.104V4.44ZM95.9047 7.92252L96.9607 1.44252L91.0388 0.477475L89.9828 6.95748L95.9047 7.92252ZM93.9997 3.96H109.36V-2.04H93.9997V3.96ZM106.397 0.489267L102.317 26.1693L108.243 27.1107L112.323 1.43073L106.397 0.489267ZM102.312 26.2004C102.1 27.6336 102.294 29.2207 103.329 30.5744L108.095 26.9296C108.131 26.9772 108.163 27.0305 108.188 27.0858C108.212 27.1407 108.225 27.1859 108.231 27.2148C108.242 27.2703 108.224 27.2379 108.247 27.0796L102.312 26.2004ZM103.454 30.7275C104.618 32.0581 106.201 32.52 107.68 32.52V26.52C107.539 26.52 107.542 26.4987 107.63 26.5333C107.676 26.551 107.735 26.5803 107.8 26.6253C107.865 26.6705 107.922 26.7227 107.969 26.7765L103.454 30.7275ZM107.68 32.52H115.36V26.52H107.68V32.52ZM112.395 29.0589L111.387 35.5389L117.316 36.4611L118.324 29.9811L112.395 29.0589ZM114.352 33H105.952V39H114.352V33ZM127.341 33.696L125.036 35.6166L127.341 33.696ZM126.045 27.36L123.081 26.8934L123.08 26.9012L126.045 27.36ZM127.821 16.08L130.784 16.5466L131.33 13.08H127.821V16.08ZM120.861 16.08L117.897 15.6189L117.358 19.08H120.861V16.08ZM121.869 9.6V6.6H119.3L118.905 9.13888L121.869 9.6ZM128.829 9.6V12.6H131.387L131.791 10.074L128.829 9.6ZM129.981 2.4V-0.600002H127.423L127.019 1.92603L129.981 2.4ZM137.181 2.4L140.143 2.87397L140.699 -0.600002H137.181V2.4ZM136.029 9.6L133.067 9.12603L132.511 12.6H136.029V9.6ZM145.869 9.6L148.833 10.0611L149.372 6.6H145.869V9.6ZM144.861 16.08V19.08H147.43L147.825 16.5411L144.861 16.08ZM135.021 16.08V13.08H132.456L132.058 15.6134L135.021 16.08ZM133.245 27.36L136.199 27.8851L136.204 27.8559L136.208 27.8266L133.245 27.36ZM142.221 29.52L145.185 29.9811L145.724 26.52H142.221V29.52ZM141.213 36V39H143.782L144.177 36.4611L141.213 36ZM133.293 33C131.17 33 130.176 32.4116 129.646 31.7754L125.036 35.6166C127.066 38.0524 130.04 39 133.293 39V33ZM129.646 31.7754C129.096 31.1153 128.676 29.9768 129.01 27.8188L123.08 26.9012C122.582 30.1192 123.026 33.2047 125.036 35.6166L129.646 31.7754ZM129.008 27.8266L130.784 16.5466L124.858 15.6134L123.082 26.8934L129.008 27.8266ZM127.821 13.08H120.861V19.08H127.821V13.08ZM123.825 16.5411L124.833 10.0611L118.905 9.13888L117.897 15.6189L123.825 16.5411ZM121.869 12.6H128.829V6.6H121.869V12.6ZM131.791 10.074L132.943 2.87397L127.019 1.92603L125.867 9.12603L131.791 10.074ZM129.981 5.4H137.181V-0.600002H129.981V5.4ZM134.219 1.92603L133.067 9.12603L138.991 10.074L140.143 2.87397L134.219 1.92603ZM136.029 12.6H145.869V6.6H136.029V12.6ZM142.905 9.13888L141.897 15.6189L147.825 16.5411L148.833 10.0611L142.905 9.13888ZM144.861 13.08H135.021V19.08H144.861V13.08ZM132.058 15.6134L130.282 26.8934L136.208 27.8266L137.984 16.5466L132.058 15.6134ZM130.291 26.8349C130.097 27.9298 130.073 29.5398 131.18 30.8853C132.298 32.2455 133.896 32.52 135.021 32.52V26.52C134.706 26.52 135.288 26.4345 135.814 27.0747C136.329 27.7002 136.137 28.2302 136.199 27.8851L130.291 26.8349ZM135.021 32.52H142.221V26.52H135.021V32.52ZM139.257 29.0589L138.249 35.5389L144.177 36.4611L145.185 29.9811L139.257 29.0589ZM141.213 33H133.293V39H141.213V33ZM147.962 36L144.999 35.5292L144.448 39H147.962V36ZM153.53 0.959999V-2.04H150.969L150.567 0.489194L153.53 0.959999ZM160.73 0.959999L163.692 1.43718L164.252 -2.04H160.73V0.959999ZM159.338 9.6L162.274 10.2152L162.289 10.1465L162.3 10.0772L159.338 9.6ZM158.282 14.64L155.346 14.0248L154.589 17.64H158.282V14.64ZM160.394 14.64L162.138 17.0812L169.756 11.64H160.394V14.64ZM158.042 16.32L155.079 15.8543L153.969 22.9163L159.786 18.7612L158.042 16.32ZM160.778 11.04L158.834 8.75538L158.822 8.76572L158.81 8.77618L160.778 11.04ZM172.01 11.808L169.548 13.5225L169.559 13.5372L169.569 13.5517L172.01 11.808ZM173.21 18.96L170.249 18.4823L170.247 18.4925L173.21 18.96ZM170.522 36V39H173.086L173.486 36.4675L170.522 36ZM163.322 36L160.359 35.5294L159.808 39H163.322V36ZM165.914 19.68L162.953 19.198L162.951 19.2094L165.914 19.68ZM165.338 16.512L162.986 18.3741L163.005 18.3986L163.025 18.4226L165.338 16.512ZM159.29 16.512L161.321 18.7198L161.325 18.7164L159.29 16.512ZM157.754 19.68L154.793 19.198L154.791 19.2094L157.754 19.68ZM155.162 36V39H157.723L158.125 36.4706L155.162 36ZM150.925 36.4708L156.493 1.4308L150.567 0.489194L144.999 35.5292L150.925 36.4708ZM153.53 3.96H160.73V-2.04H153.53V3.96ZM157.768 0.482819L156.376 9.12282L162.3 10.0772L163.692 1.43718L157.768 0.482819ZM156.402 8.98479L155.346 14.0248L161.218 15.2552L162.274 10.2152L156.402 8.98479ZM158.282 17.64H160.394V11.64H158.282V17.64ZM158.651 12.1988L156.299 13.8788L159.786 18.7612L162.138 17.0812L158.651 12.1988ZM161.006 16.7857C161.267 15.1241 161.892 14.0467 162.747 13.3038L158.81 8.77618C156.72 10.5933 155.522 13.0359 155.079 15.8543L161.006 16.7857ZM162.723 13.3246C163.628 12.5544 164.757 12.12 166.298 12.12V6.12C163.488 6.12 160.937 6.96556 158.834 8.75538L162.723 13.3246ZM166.298 12.12C168.071 12.12 168.964 12.6831 169.548 13.5225L174.472 10.0935C172.561 7.34894 169.646 6.12 166.298 6.12V12.12ZM169.569 13.5517C170.242 14.4933 170.65 15.9924 170.249 18.4823L176.172 19.4377C176.73 15.9756 176.339 12.7067 174.451 10.0643L169.569 13.5517ZM170.247 18.4925L167.559 35.5325L173.486 36.4675L176.174 19.4275L170.247 18.4925ZM170.522 33H163.322V39H170.522V33ZM166.285 36.4706L168.877 20.1506L162.951 19.2094L160.359 35.5294L166.285 36.4706ZM168.875 20.162C169.173 18.3333 169.025 16.2639 167.651 14.6014L163.025 18.4226C162.963 18.3476 162.971 18.3058 162.987 18.3927C163.006 18.5005 163.026 18.752 162.953 19.198L168.875 20.162ZM167.69 14.6499C166.334 12.9369 164.353 12.36 162.458 12.36V18.36C162.831 18.36 163.004 18.4157 163.048 18.4334C163.067 18.4412 163.061 18.4408 163.04 18.4256C163.019 18.4099 162.999 18.3907 162.986 18.3741L167.69 14.6499ZM162.458 12.36C160.53 12.36 158.715 12.9605 157.255 14.3076L161.325 18.7164C161.53 18.5275 161.826 18.36 162.458 18.36V12.36ZM157.259 14.3042C155.84 15.61 155.094 17.3484 154.793 19.198L160.715 20.162C160.862 19.2596 161.141 18.886 161.321 18.7198L157.259 14.3042ZM154.791 19.2094L152.199 35.5294L158.125 36.4706L160.717 20.1506L154.791 19.2094ZM155.162 33H147.962V39H155.162V33ZM210.901 35.184L209.457 37.8137L209.477 37.8247L209.497 37.8354L210.901 35.184ZM207.397 31.488L204.651 32.6962L204.655 32.7065L204.66 32.7168L207.397 31.488ZM206.821 25.92L203.858 25.4516L203.856 25.4611L203.855 25.4706L206.821 25.92ZM209.173 11.04L206.212 10.554L206.211 10.5628L206.21 10.5716L209.173 11.04ZM211.525 5.472L209.154 3.63353L211.525 5.472ZM216.181 1.824L217.429 4.55192L217.439 4.54727L217.449 4.54255L216.181 1.824ZM228.517 1.824L227.051 4.44152L227.071 4.45277L227.091 4.46372L228.517 1.824ZM232.597 11.04V14.04H235.144L235.557 11.526L232.597 11.04ZM225.397 11.04L222.445 10.5033L221.802 14.04H225.397V11.04ZM224.773 7.824L222.557 9.84681V9.84681L224.773 7.824ZM216.373 11.04L213.421 10.5033L213.415 10.5374L213.41 10.5716L216.373 11.04ZM214.021 25.92L216.982 26.402L216.984 26.3884L214.021 25.92ZM214.693 29.136L212.435 31.1115L212.456 31.1354L212.477 31.1588L214.693 29.136ZM221.365 29.136L223.269 31.4542L223.293 31.4342L223.317 31.4138L221.365 29.136ZM223.045 25.92V22.92H220.494L220.084 25.438L223.045 25.92ZM230.245 25.92L233.211 26.3694L233.734 22.92H230.245V25.92ZM227.893 31.488L225.527 29.6429L225.522 29.6495L227.893 31.488ZM223.237 35.184L224.485 37.9119L224.504 37.9032L224.523 37.8943L223.237 35.184ZM216.853 33.48C214.879 33.48 213.404 33.1149 212.304 32.5326L209.497 37.8354C211.661 38.9811 214.154 39.48 216.853 39.48V33.48ZM212.345 32.5543C211.234 31.9445 210.548 31.1816 210.134 30.2592L204.66 32.7168C205.654 34.9304 207.304 36.6315 209.457 37.8137L212.345 32.5543ZM210.143 30.2798C209.714 29.3053 209.533 28.0445 209.787 26.3694L203.855 25.4706C203.468 28.0195 203.672 30.4707 204.651 32.6962L210.143 30.2798ZM209.784 26.3884L212.136 11.5084L206.21 10.5716L203.858 25.4516L209.784 26.3884ZM212.133 11.526C212.412 9.82701 213.014 8.44712 213.895 7.31047L209.154 3.63353C207.604 5.63287 206.637 7.96498 206.212 10.554L212.133 11.526ZM213.895 7.31047C214.801 6.14313 215.96 5.22404 217.429 4.55192L214.932 -0.903925C212.625 0.151959 210.681 1.66487 209.154 3.63353L213.895 7.31047ZM217.449 4.54255C218.933 3.85021 220.622 3.48 222.565 3.48V-2.52C219.836 -2.52 217.269 -1.99422 214.912 -0.89455L217.449 4.54255ZM222.565 3.48C224.565 3.48 226.011 3.85902 227.051 4.44152L229.983 -0.793519C227.823 -2.00302 225.3 -2.52 222.565 -2.52V3.48ZM227.091 4.46372C228.156 5.03877 228.856 5.79025 229.305 6.74672L234.736 4.19728C233.713 2.01775 232.077 0.337226 229.942 -0.815718L227.091 4.46372ZM229.305 6.74672C229.725 7.64087 229.915 8.85542 229.636 10.554L235.557 11.526C235.982 8.93657 235.789 6.43913 234.736 4.19728L229.305 6.74672ZM232.597 8.04H225.397V14.04H232.597V8.04ZM228.348 11.5767C228.695 9.66978 228.534 7.49378 226.988 5.80119L222.557 9.84681C222.53 9.81661 222.507 9.78212 222.492 9.75192C222.478 9.72334 222.481 9.7184 222.488 9.75143C222.502 9.82758 222.526 10.058 222.445 10.5033L228.348 11.5767ZM226.988 5.80119C225.533 4.20784 223.506 3.72 221.605 3.72V9.72C222.08 9.72 222.355 9.78214 222.49 9.82891C222.606 9.86934 222.596 9.88966 222.557 9.84681L226.988 5.80119ZM221.605 3.72C219.643 3.72 217.749 4.23049 216.197 5.50582L220.005 10.1422C220.244 9.94551 220.686 9.72 221.605 9.72V3.72ZM216.197 5.50582C214.632 6.79136 213.773 8.56573 213.421 10.5033L219.324 11.5767C219.484 10.6983 219.778 10.3286 220.005 10.1422L216.197 5.50582ZM213.41 10.5716L211.058 25.4516L216.984 26.3884L219.336 11.5084L213.41 10.5716ZM211.06 25.438C210.748 27.3554 210.979 29.4471 212.435 31.1115L216.95 27.1605C216.979 27.1928 216.972 27.2117 216.957 27.1424C216.938 27.0505 216.914 26.8214 216.982 26.402L211.06 25.438ZM212.477 31.1588C213.932 32.7522 215.959 33.24 217.861 33.24V27.24C217.385 27.24 217.11 27.1779 216.976 27.1311C216.86 27.0907 216.869 27.0703 216.908 27.1132L212.477 31.1588ZM217.861 33.24C219.822 33.24 221.716 32.7295 223.269 31.4542L219.461 26.8178C219.221 27.0145 218.779 27.24 217.861 27.24V33.24ZM223.317 31.4138C224.845 30.1043 225.69 28.3439 226.006 26.402L220.084 25.438C219.952 26.2481 219.677 26.6317 219.412 26.8582L223.317 31.4138ZM223.045 28.92H230.245V22.92H223.045V28.92ZM227.279 25.4706C227.032 27.1014 226.442 28.4705 225.527 29.6429L230.258 33.3331C231.84 31.3055 232.818 28.9626 233.211 26.3694L227.279 25.4706ZM225.522 29.6495C224.61 30.8261 223.437 31.7683 221.951 32.4737L224.523 37.8943C226.813 36.8077 228.744 35.2859 230.263 33.3265L225.522 29.6495ZM221.988 32.4561C220.544 33.1172 218.85 33.48 216.853 33.48V39.48C219.591 39.48 222.154 38.9788 224.485 37.9119L221.988 32.4561ZM236.754 33.696L239.204 31.9643L236.754 33.696ZM235.554 26.16L232.594 25.6737L232.592 25.6814L235.554 26.16ZM236.658 19.44L233.699 18.9468L233.698 18.9537L236.658 19.44ZM242.226 10.416L243.727 13.0136L243.736 13.0084L243.745 13.0032L242.226 10.416ZM251.874 11.04L249.531 12.9141L249.557 12.9463L249.584 12.9778L251.874 11.04ZM252.93 16.32L250.652 18.2724L254.896 23.2237L255.895 16.7793L252.93 16.32ZM251.49 14.64V11.64H244.967L249.212 16.5924L251.49 14.64ZM253.17 14.64V17.64H255.821L256.147 15.0086L253.17 14.64ZM253.794 9.6V6.6H251.143L250.817 9.23138L253.794 9.6ZM260.946 9.6L263.909 10.0687L264.458 6.6H260.946V9.6ZM256.77 36V39H259.333L259.733 36.4687L256.77 36ZM249.81 36L246.849 35.5205L246.285 39H249.81V36ZM250.626 30.96L253.587 31.4395L254.151 27.96H250.626V30.96ZM248.946 30.96L246.97 28.7023L240.962 33.96H248.946V30.96ZM250.866 29.28L253.831 29.7393L255.092 21.5957L248.89 27.0223L250.866 29.28ZM248.13 34.608L250.095 36.8751L250.099 36.8718L248.13 34.608ZM249.522 29.136L251.51 31.383L251.515 31.3782L249.522 29.136ZM251.154 25.92L254.115 26.402L254.116 26.3984L251.154 25.92ZM252.162 19.68L249.201 19.198L249.2 19.2016L252.162 19.68ZM251.538 16.512L249.186 18.3741L249.229 18.4283L249.274 18.4805L251.538 16.512ZM245.394 16.512L247.382 18.759L247.406 18.7379L247.429 18.7164L245.394 16.512ZM243.81 19.68L240.849 19.198L240.848 19.2016L243.81 19.68ZM242.802 25.92L245.763 26.402L245.764 26.3984L242.802 25.92ZM243.378 29.136L241.026 30.9981L241.045 31.0226L241.065 31.0466L243.378 29.136ZM242.706 33.48C240.836 33.48 239.853 32.8828 239.204 31.9643L234.304 35.4277C236.279 38.2212 239.264 39.48 242.706 39.48V33.48ZM239.204 31.9643C238.504 30.9743 238.077 29.3534 238.516 26.6386L232.592 25.6814C232.007 29.3026 232.38 32.7057 234.304 35.4277L239.204 31.9643ZM238.514 26.6463L239.618 19.9263L233.698 18.9537L232.594 25.6737L238.514 26.6463ZM239.617 19.9332C239.916 18.1409 240.454 16.7042 241.17 15.558L236.082 12.378C234.878 14.3038 234.104 16.5151 233.699 18.9468L239.617 19.9332ZM241.17 15.558C241.894 14.4002 242.749 13.5786 243.727 13.0136L240.725 7.8184C238.823 8.91735 237.278 10.4638 236.082 12.378L241.17 15.558ZM243.745 13.0032C244.741 12.4182 245.831 12.12 247.074 12.12V6.12C244.798 6.12 242.655 6.68581 240.707 7.82875L243.745 13.0032ZM247.074 12.12C248.659 12.12 249.251 12.5631 249.531 12.9141L254.217 9.16591C252.449 6.95688 249.841 6.12 247.074 6.12V12.12ZM249.584 12.9778C249.879 13.3262 250.24 14.0859 249.965 15.8607L255.895 16.7793C256.324 14.0101 255.981 11.2498 254.164 9.10217L249.584 12.9778ZM255.208 14.3676L253.768 12.6876L249.212 16.5924L250.652 18.2724L255.208 14.3676ZM251.49 17.64H253.17V11.64H251.49V17.64ZM256.147 15.0086L256.771 9.96861L250.817 9.23138L250.193 14.2714L256.147 15.0086ZM253.794 12.6H260.946V6.6H253.794V12.6ZM257.983 9.13128L253.807 35.5313L259.733 36.4687L263.909 10.0687L257.983 9.13128ZM256.77 33H249.81V39H256.77V33ZM252.771 36.4795L253.587 31.4395L247.665 30.4805L246.849 35.5205L252.771 36.4795ZM250.626 27.96H248.946V33.96H250.626V27.96ZM250.922 33.2177L252.842 31.5377L248.89 27.0223L246.97 28.7023L250.922 33.2177ZM247.901 28.8207C247.638 30.5238 247.006 31.6095 246.161 32.3442L250.099 36.8718C252.198 35.0465 253.39 32.5802 253.831 29.7393L247.901 28.8207ZM246.165 32.3409C245.348 33.0494 244.269 33.48 242.706 33.48V39.48C245.495 39.48 248.032 38.6626 250.095 36.8751L246.165 32.3409ZM246.306 33.24C248.21 33.24 250.033 32.6896 251.51 31.383L247.534 26.889C247.347 27.0544 247.026 27.24 246.306 27.24V33.24ZM251.515 31.3782C252.995 30.063 253.804 28.3131 254.115 26.402L248.193 25.438C248.056 26.2789 247.777 26.673 247.529 26.8938L251.515 31.3782ZM254.116 26.3984L255.124 20.1584L249.2 19.2016L248.192 25.4416L254.116 26.3984ZM255.123 20.162C255.426 18.2982 255.245 16.2033 253.802 14.5435L249.274 18.4805C249.215 18.413 249.217 18.3675 249.231 18.4358C249.249 18.5274 249.272 18.7634 249.201 19.198L255.123 20.162ZM253.89 14.6499C252.534 12.9369 250.553 12.36 248.658 12.36V18.36C249.031 18.36 249.203 18.4157 249.248 18.4334C249.267 18.4412 249.26 18.4408 249.24 18.4256C249.218 18.4099 249.199 18.3907 249.186 18.3741L253.89 14.6499ZM248.658 12.36C246.709 12.36 244.846 12.9349 243.359 14.3076L247.429 18.7164C247.606 18.5531 247.919 18.36 248.658 18.36V12.36ZM243.406 14.265C241.935 15.5665 241.155 17.3175 240.849 19.198L246.771 20.162C246.913 19.2905 247.189 18.9295 247.382 18.759L243.406 14.265ZM240.848 19.2016L239.84 25.4416L245.764 26.3984L246.772 20.1584L240.848 19.2016ZM239.841 25.438C239.54 27.2857 239.704 29.3286 241.026 30.9981L245.73 27.2739C245.766 27.3198 245.75 27.3314 245.731 27.2271C245.709 27.1039 245.691 26.8443 245.763 26.402L239.841 25.438ZM241.065 31.0466C242.448 32.7207 244.449 33.24 246.306 33.24V27.24C245.896 27.24 245.692 27.1825 245.624 27.1569C245.579 27.1398 245.632 27.1536 245.691 27.2254L241.065 31.0466ZM263.855 36L260.892 35.5313L260.343 39H263.855V36ZM268.031 9.6V6.6H265.469L265.068 9.13128L268.031 9.6ZM274.751 9.6L277.713 10.0795L278.276 6.6H274.751V9.6ZM273.935 14.64L270.974 14.1605L270.41 17.64H273.935V14.64ZM275.759 14.64L278.07 16.5534L282.139 11.64H275.759V14.64ZM273.215 17.712L270.252 17.2458L268.553 28.0456L275.526 19.6254L273.215 17.712ZM276.191 11.28L274.162 9.07041L274.151 9.08084L274.139 9.09139L276.191 11.28ZM288.671 11.76L286.266 13.553L286.276 13.5669L286.287 13.5807L288.671 11.76ZM289.919 19.2L286.957 18.726L286.955 18.7389L289.919 19.2ZM289.583 21.36V24.36H292.153L292.548 21.8211L289.583 21.36ZM281.903 21.36L278.946 20.8531L278.345 24.36H281.903V21.36ZM282.191 19.68L285.148 20.1869L285.152 20.164L285.156 20.1411L282.191 19.68ZM281.519 16.32L279.177 18.1941L279.199 18.2221L279.222 18.2496L281.519 16.32ZM275.231 16.32L273.193 14.1187L273.172 14.1379L273.152 14.1575L275.231 16.32ZM273.647 19.68L276.61 20.1506L276.612 20.1411L273.647 19.68ZM271.055 36V39H273.616L274.018 36.4706L271.055 36ZM266.818 36.4687L270.994 10.0687L265.068 9.13128L260.892 35.5313L266.818 36.4687ZM268.031 12.6H274.751V6.6H268.031V12.6ZM271.79 9.12053L270.974 14.1605L276.897 15.1195L277.713 10.0795L271.79 9.12053ZM273.935 17.64H275.759V11.64H273.935V17.64ZM273.449 12.7266L270.905 15.7986L275.526 19.6254L278.07 16.5534L273.449 12.7266ZM276.179 18.1782C276.561 15.7491 277.346 14.3093 278.243 13.4686L274.139 9.09139C271.964 11.1307 270.766 13.9789 270.252 17.2458L276.179 18.1782ZM278.22 13.4896C279.134 12.6507 280.409 12.12 282.335 12.12V6.12C279.205 6.12 276.385 7.02935 274.162 9.07041L278.22 13.4896ZM282.335 12.12C284.636 12.12 285.695 12.7869 286.266 13.553L291.076 9.967C289.024 7.21305 285.858 6.12 282.335 6.12V12.12ZM286.287 13.5807C286.939 14.4351 287.4 15.9594 286.957 18.726L292.882 19.674C293.463 16.0406 293.091 12.6049 291.056 9.93926L286.287 13.5807ZM286.955 18.7389L286.619 20.8989L292.548 21.8211L292.884 19.6611L286.955 18.7389ZM289.583 18.36H281.903V24.36H289.583V18.36ZM284.86 21.8669L285.148 20.1869L279.234 19.1731L278.946 20.8531L284.86 21.8669ZM285.156 20.1411C285.458 18.1963 285.239 16.0843 283.816 14.3904L279.222 18.2496C279.204 18.2285 279.227 18.2353 279.25 18.3483C279.276 18.482 279.299 18.7556 279.227 19.2189L285.156 20.1411ZM283.862 14.4459C282.499 12.7423 280.536 12.12 278.591 12.12V18.12C278.949 18.12 279.119 18.1752 279.17 18.1959C279.193 18.2056 279.196 18.2097 279.188 18.2036C279.179 18.1972 279.175 18.1917 279.177 18.1941L283.862 14.4459ZM278.591 12.12C276.595 12.12 274.704 12.7198 273.193 14.1187L277.269 18.5213C277.487 18.3202 277.835 18.12 278.591 18.12V12.12ZM273.152 14.1575C271.735 15.5203 270.981 17.3028 270.683 19.2189L276.612 20.1411C276.762 19.1772 277.064 18.7197 277.311 18.4825L273.152 14.1575ZM270.684 19.2094L268.092 35.5294L274.018 36.4706L276.61 20.1506L270.684 19.2094ZM271.055 33H263.855V39H271.055V33ZM297.148 35.184L295.683 37.8015L295.703 37.8128L295.723 37.8237L297.148 35.184ZM293.693 31.488L290.927 32.6497L290.941 32.6834L290.956 32.7168L293.693 31.488ZM293.164 25.92L290.203 25.4416L290.201 25.4561L290.198 25.4706L293.164 25.92ZM294.172 19.68L291.213 19.1868L291.212 19.1942L291.211 19.2016L294.172 19.68ZM296.477 14.16L294.088 12.3447L294.082 12.3522L296.477 14.16ZM301.085 10.464L302.351 13.1837L302.361 13.179L302.371 13.1743L301.085 10.464ZM313.276 10.464L311.788 13.0687L311.819 13.0866L311.851 13.1037L313.276 10.464ZM316.685 14.16L313.919 15.3217L313.933 15.3554L313.948 15.3888L316.685 14.16ZM317.212 19.68L314.253 19.1868L314.252 19.1964L314.25 19.206L317.212 19.68ZM316.444 24.48V27.48H319.003L319.407 24.954L316.444 24.48ZM300.268 24.48V21.48H297.727L297.309 23.9868L300.268 24.48ZM300.029 25.92L297.069 25.4268L297.066 25.4453L297.063 25.4638L300.029 25.92ZM300.652 29.712L298.284 31.5538L298.301 31.5756L298.319 31.597L300.652 29.712ZM306.845 30.384L305.503 27.7007L305.48 27.7123L305.457 27.7242L306.845 30.384ZM308.477 28.8V25.8H306.582L305.768 27.5102L308.477 28.8ZM315.533 28.8L318.322 29.9041L319.946 25.8H315.533V28.8ZM312.749 32.832L314.783 35.0364L312.749 32.832ZM308.38 35.52L307.304 32.72L307.294 32.7235L307.285 32.7271L308.38 35.52ZM310.156 20.784L307.194 20.31L305.93 28.2112L312.077 23.0887L310.156 20.784ZM310.349 19.584L313.311 20.058L313.312 20.0489L310.349 19.584ZM309.82 15.84L312.274 14.1135V14.1135L309.82 15.84ZM302.812 15.888L300.729 13.7298V13.7298L302.812 15.888ZM301.036 19.68L303.978 20.2683L303.991 20.2069L304 20.1449L301.036 19.68ZM300.892 20.4L297.951 19.8116L297.226 23.4359L300.922 23.3999L300.892 20.4ZM310.733 20.304L312.653 22.6087L319.117 17.2221L310.703 17.3041L310.733 20.304ZM303.052 33.48C301.076 33.48 299.629 33.1139 298.574 32.5443L295.723 37.8237C297.868 38.982 300.357 39.48 303.052 39.48V33.48ZM298.614 32.5665C297.536 31.9627 296.851 31.1995 296.429 30.2592L290.956 32.7168C291.942 34.9125 293.561 36.6133 295.683 37.8015L298.614 32.5665ZM296.458 30.3263C296.044 29.3404 295.874 28.0618 296.131 26.3694L290.198 25.4706C289.815 28.0022 289.997 30.4356 290.927 32.6497L296.458 30.3263ZM296.126 26.3984L297.134 20.1584L291.211 19.2016L290.203 25.4416L296.126 26.3984ZM297.132 20.1732C297.411 18.4948 298.004 17.1157 298.871 15.9678L294.082 12.3522C292.581 14.3403 291.638 16.6412 291.213 19.1868L297.132 20.1732ZM298.865 15.9753C299.78 14.771 300.928 13.846 302.351 13.1837L299.818 7.74425C297.529 8.81004 295.605 10.349 294.088 12.3447L298.865 15.9753ZM302.371 13.1743C303.812 12.4904 305.477 12.12 307.421 12.12V6.12C304.692 6.12 302.133 6.64555 299.798 7.75372L302.371 13.1743ZM307.421 12.12C309.384 12.12 310.788 12.497 311.788 13.0687L314.765 7.85927C312.629 6.63896 310.129 6.12 307.421 6.12V12.12ZM311.851 13.1037C312.88 13.6592 313.525 14.3847 313.919 15.3217L319.45 12.9983C318.5 10.7353 316.873 8.99678 314.702 7.82428L311.851 13.1037ZM313.948 15.3888C314.356 16.2981 314.532 17.5144 314.253 19.1868L320.172 20.1732C320.597 17.6216 320.421 15.1579 319.421 12.9312L313.948 15.3888ZM314.25 19.206L313.482 24.006L319.407 24.954L320.175 20.154L314.25 19.206ZM316.444 21.48H300.268V27.48H316.444V21.48ZM297.309 23.9868L297.069 25.4268L302.988 26.4132L303.228 24.9732L297.309 23.9868ZM297.063 25.4638C296.749 27.5103 296.888 29.7588 298.284 31.5538L303.021 27.8702C303.073 27.9372 302.796 27.6577 302.994 26.3762L297.063 25.4638ZM298.319 31.597C299.797 33.4278 302.015 33.96 304.06 33.96V27.96C303.505 27.96 303.19 27.8859 303.04 27.8309C302.914 27.7848 302.938 27.7667 302.986 27.827L298.319 31.597ZM304.06 33.96C305.503 33.96 306.945 33.7155 308.232 33.0438L305.457 27.7242C305.272 27.8205 304.858 27.96 304.06 27.96V33.96ZM308.186 33.0673C309.456 32.4322 310.534 31.4561 311.185 30.0898L305.768 27.5102C305.764 27.518 305.76 27.5271 305.739 27.5473C305.715 27.5709 305.648 27.6283 305.503 27.7007L308.186 33.0673ZM308.477 31.8H315.533V25.8H308.477V31.8ZM312.743 27.6959C312.306 28.8011 311.64 29.7722 310.714 30.6276L314.783 35.0364C316.353 33.5878 317.543 31.8709 318.322 29.9041L312.743 27.6959ZM310.714 30.6276C309.758 31.5096 308.631 32.2093 307.304 32.72L309.457 38.32C311.458 37.5507 313.243 36.4584 314.783 35.0364L310.714 30.6276ZM307.285 32.7271C306.034 33.2178 304.633 33.48 303.052 33.48V39.48C305.312 39.48 307.463 39.1022 309.476 38.3129L307.285 32.7271ZM313.119 21.258L313.311 20.058L307.386 19.11L307.194 20.31L313.119 21.258ZM313.312 20.0489C313.623 18.067 313.526 15.8924 312.274 14.1135L307.367 17.5665C307.331 17.5156 307.586 17.837 307.385 19.1191L313.312 20.0489ZM312.274 14.1135C310.868 12.1162 308.603 11.544 306.556 11.544V17.544C307.083 17.544 307.347 17.6188 307.441 17.6562C307.482 17.6725 307.479 17.6769 307.453 17.6567C307.425 17.635 307.393 17.603 307.367 17.5665L312.274 14.1135ZM306.556 11.544C304.389 11.544 302.332 12.1818 300.729 13.7298L304.896 18.0462C305.149 17.8022 305.588 17.544 306.556 17.544V11.544ZM300.729 13.7298C299.213 15.1928 298.401 17.1204 298.073 19.2151L304 20.1449C304.184 18.9756 304.556 18.3752 304.896 18.0462L300.729 13.7298ZM298.095 19.0916L297.951 19.8116L303.834 20.9883L303.978 20.2683L298.095 19.0916ZM300.922 23.3999L310.762 23.3039L310.703 17.3041L300.863 17.4001L300.922 23.3999ZM308.812 17.9993L308.236 18.4793L312.077 23.0887L312.653 22.6087L308.812 17.9993Z" fill="black" mask="url(#path-1-outside-1_1_12)"/>
</g>
<defs>
<filter id="filter0_d_1_12" x="0.0559998" y="0.480011" width="321.685" height="44" filterUnits="userSpaceOnUse" color-interpolation-filters="sRGB">
<feFlood flood-opacity="0" result="BackgroundImageFix"/>
<feColorMatrix in="SourceAlpha" type="matrix" values="0 0 0 0 0 0 0 0 0 0 0 0 0 0 0 0 0 0 127 0" result="hardAlpha"/>
<feOffset dy="4"/>
<feGaussianBlur stdDeviation="2"/>
<feComposite in2="hardAlpha" operator="out"/>
<feColorMatrix type="matrix" values="0 0 0 0 0 0 0 0 0 0 0 0 0 0 0 0 0 0 0.25 0"/>
<feBlend mode="normal" in2="BackgroundImageFix" result="effect1_dropShadow_1_12"/>
<feBlend mode="normal" in="SourceGraphic" in2="effect1_dropShadow_1_12" result="shape"/>
</filter>
</defs>
</svg>
