<svg width="144" height="74" viewBox="0 0 144 74" fill="none" xmlns="http://www.w3.org/2000/svg">
<g id="Group 236">
<g id="Group 235">
<rect id="Rectangle 169" x="1" y="1" width="131" height="61" rx="15" fill="#DDC4FE" stroke="#DDC4FE" stroke-width="2"/>
<path id="Rectangle 170" d="M118 62H120.5C126.299 62 131 66.701 131 72.5V72.5" stroke="#DDC4FE" stroke-width="2"/>
<path id="Rectangle 173" d="M143 63C143.552 63 144 62.5523 144 62C144 61.4477 143.552 61 143 61V63ZM133 51V48H131V51H133ZM143 61C137.477 61 133 56.5228 133 51H131C131 57.6274 136.373 63 143 63V61Z" fill="#DDC4FE"/>
<path id="Rectangle 171" d="M131 73V73C131 66.9249 135.925 62 142 62H143" stroke="#DDC4FE" stroke-width="2" stroke-linecap="round"/>
</g>
</g>
</svg>
