<svg width="28" height="27" viewBox="0 0 28 27" fill="none" xmlns="http://www.w3.org/2000/svg">
<path d="M19.2202 13.3706C19.2202 10.3848 16.8149 7.97393 13.8595 7.97393C10.9042 7.97393 8.49878 10.3848 8.49878 13.3706C8.49878 16.3564 10.9042 18.7673 13.8595 18.7673C16.8149 18.7673 19.2202 16.3564 19.2202 13.3706Z" stroke="white" stroke-width="2"/>
<path d="M5.27075 21.9945L7.35506 19.9821" stroke="white" stroke-width="2" stroke-linecap="round"/>
<path d="M5.27075 21.9945L7.35506 19.9821" stroke="white" stroke-width="2" stroke-linecap="round"/>
<path d="M5.27075 21.9945L7.35506 19.9821" stroke="white" stroke-width="2" stroke-linecap="round"/>
<path d="M5.27075 21.9945L7.35506 19.9821" stroke="white" stroke-width="2" stroke-linecap="round"/>
<path d="M13.8955 25.5889L13.8955 22.6917" stroke="white" stroke-width="2" stroke-linecap="round"/>
<path d="M13.8955 25.5889L13.8955 22.6917" stroke="white" stroke-width="2" stroke-linecap="round"/>
<path d="M13.8955 25.5889L13.8955 22.6917" stroke="white" stroke-width="2" stroke-linecap="round"/>
<path d="M13.8955 25.5889L13.8955 22.6917" stroke="white" stroke-width="2" stroke-linecap="round"/>
<path d="M13.8955 4.02698L13.8955 1.12979" stroke="white" stroke-width="2" stroke-linecap="round"/>
<path d="M13.8955 4.02698L13.8955 1.12979" stroke="white" stroke-width="2" stroke-linecap="round"/>
<path d="M13.8955 4.02698L13.8955 1.12979" stroke="white" stroke-width="2" stroke-linecap="round"/>
<path d="M13.8955 4.02698L13.8955 1.12979" stroke="white" stroke-width="2" stroke-linecap="round"/>
<path d="M20.5078 6.75873L22.5921 4.74629" stroke="white" stroke-width="2" stroke-linecap="round"/>
<path d="M20.5078 6.75873L22.5921 4.74629" stroke="white" stroke-width="2" stroke-linecap="round"/>
<path d="M20.5078 6.75873L22.5921 4.74629" stroke="white" stroke-width="2" stroke-linecap="round"/>
<path d="M20.5078 6.75873L22.5921 4.74629" stroke="white" stroke-width="2" stroke-linecap="round"/>
<path d="M23.1672 13.3706H26.0644" stroke="white" stroke-width="2" stroke-linecap="round"/>
<path d="M23.1672 13.3706H26.0644" stroke="white" stroke-width="2" stroke-linecap="round"/>
<path d="M23.1672 13.3706H26.0644" stroke="white" stroke-width="2" stroke-linecap="round"/>
<path d="M23.1672 13.3706H26.0644" stroke="white" stroke-width="2" stroke-linecap="round"/>
<path d="M1.67725 13.3706H4.57443" stroke="white" stroke-width="2" stroke-linecap="round"/>
<path d="M1.67725 13.3706H4.57443" stroke="white" stroke-width="2" stroke-linecap="round"/>
<path d="M1.67725 13.3706H4.57443" stroke="white" stroke-width="2" stroke-linecap="round"/>
<path d="M1.67725 13.3706H4.57443" stroke="white" stroke-width="2" stroke-linecap="round"/>
<path d="M5.19885 4.74585L7.2819 6.75946" stroke="white" stroke-width="2" stroke-linecap="round"/>
<path d="M5.19885 4.74585L7.2819 6.75946" stroke="white" stroke-width="2" stroke-linecap="round"/>
<path d="M5.19885 4.74585L7.2819 6.75946" stroke="white" stroke-width="2" stroke-linecap="round"/>
<path d="M5.19885 4.74585L7.2819 6.75946" stroke="white" stroke-width="2" stroke-linecap="round"/>
<path d="M20.5078 19.9816L22.5909 21.9952" stroke="white" stroke-width="2" stroke-linecap="round"/>
<path d="M20.5078 19.9816L22.5909 21.9952" stroke="white" stroke-width="2" stroke-linecap="round"/>
<path d="M20.5078 19.9816L22.5909 21.9952" stroke="white" stroke-width="2" stroke-linecap="round"/>
<path d="M20.5078 19.9816L22.5909 21.9952" stroke="white" stroke-width="2" stroke-linecap="round"/>
</svg>
