<svg width="34" height="117" viewBox="0 0 34 117" fill="none" xmlns="http://www.w3.org/2000/svg">
<path d="M1.09201 98.9935C9.67581 99.0486 16.5932 106.562 16.5425 115.774" stroke="#FFE600" stroke-width="2" stroke-linecap="square"/>
<path d="M16.5424 115.774C16.5932 106.561 23.7822 99.1386 32.5996 99.1952" stroke="#FFE600" stroke-width="2" stroke-linecap="square"/>
<path d="M1 94H18H33V95L32.5 99L25.5 100.5L19.5 105.5L16.5 111.5L12 103L1.5 98.5L1 95V94Z" fill="#1A1A1A"/>
<path d="M24.6732 80.1224L24.5063 78.1063L15.3844 81.5093L19.5804 88.7596L24.4511 91.1383L24.6699 86.0024L25.0059 86.0026L25.0013 94.3546L24.6653 94.3544C24.6653 94.3544 24.618 93.0584 24.4743 92.6023C24.3066 92.0742 24.0188 91.6661 23.515 91.2818C22.9872 90.8975 21.8835 90.2969 21.7636 90.2248L19.2922 89.0474L11.7343 85.3712C11.3024 85.155 10.3906 84.7465 9.69477 84.4821C9.28685 84.3379 8.73481 84.4096 8.68636 85.2256C8.68617 85.5616 8.54018 89.1615 8.54018 89.1615L8.20418 89.1613L8.20813 82.0333L21.6749 77.0008C22.8032 76.5694 24.2675 75.9942 24.5322 74.6503C24.6525 74.0984 24.677 73.2344 24.677 73.2344L25.013 73.2346L25.0092 80.1226L24.6732 80.1224ZM18.9566 88.4712L15.0243 81.6531L9.33516 83.7859L18.9566 88.4712ZM22.3258 71.8994L10.9018 71.8931C10.4698 71.8929 9.86974 71.9165 9.53371 71.9643C9.10167 72.0361 8.74159 72.1799 8.66927 72.7559C8.62107 73.1158 8.54847 74.1958 8.54847 74.1958L8.21247 74.1956L8.21617 67.5236L8.55217 67.5238L8.71887 69.8759L15.4629 69.8796L8.31444 63.4437L6.22589 64.4265L6.05805 64.1384L8.26674 62.8916L16.2852 58.5041L16.477 58.8402C16.477 58.8402 11.2434 61.6933 10.4031 62.2928C9.99492 62.5806 9.8267 62.9645 9.82649 63.3485C9.82613 63.9965 10.4497 64.8128 10.9054 65.2691L11.5771 65.8695L20.6029 62.5625C21.6351 62.179 23.2195 61.5319 23.6757 61.1482C24.1319 60.7884 24.4442 60.3326 24.5164 59.9006C24.6367 59.3487 24.7092 58.4367 24.7092 58.4367L25.0212 58.4369L25.0176 64.9169L24.6816 64.9167L24.5625 63.2607L13.2803 67.3824L16.0629 69.88L24.5109 69.8846L24.6802 67.5327L25.0162 67.5329L25.0125 74.2049L24.7005 74.2047C24.7005 74.2047 24.7011 73.0767 24.6053 72.7887C24.4616 72.2366 24.1257 72.0444 23.6457 71.9722C23.3337 71.924 22.7578 71.8997 22.3258 71.8994ZM21.0228 41.1733C20.2547 41.2688 19.9427 41.3407 19.8707 41.3646C23.6857 43.2147 25.3652 44.0557 25.3638 46.6237C25.3633 47.4397 24.8588 48.4474 22.7948 48.4462C20.3948 48.4449 15.7876 46.9304 12.2363 45.7044C17.683 48.0834 25.361 51.5437 25.3594 54.5197C25.3589 55.3357 24.8543 56.4874 22.7903 56.4862C20.0063 56.4847 11.3441 53.1919 8.60859 52.3504C8.63212 53.1904 8.70299 55.2304 8.82258 55.9745C8.96609 56.8626 9.27807 56.8868 10.526 57.0554C11.7259 57.2241 17.1734 58.0911 17.1734 58.0911L17.1252 58.4271L8.50982 57.3423L6.13395 57.101L6.13415 56.741L8.22211 56.8142L8.22579 50.1902C11.2493 51.0078 15.6644 52.7623 20.5116 54.109C21.1355 54.2773 24.4709 55.3352 24.4718 53.7752C24.4734 50.9432 10.8923 45.6076 8.22902 44.3582L8.23015 42.3182C11.2537 43.1358 15.6927 44.9143 20.516 46.165C21.1399 46.3333 24.7155 47.1513 24.7163 45.5913C24.7174 43.6953 20.2543 42.0608 19.0307 41.3882L16.6546 41.4828L16.6548 41.1468L19.031 40.8842L27.6475 39.8329L27.6953 40.217C27.6953 40.217 22.2229 41.0059 21.0228 41.1733ZM24.7228 33.9357C24.7248 30.2637 17.7901 28.0519 16.2783 27.5471C12.415 26.4409 8.2158 24.9266 8.2158 24.9266L8.24098 22.7906C9.29677 23.1752 10.7125 23.68 12.0321 24.3287C13.1364 23.8493 19.8821 20.8291 23.0508 19.6068C24.515 19.1276 25.0424 20.3039 25.0416 21.5999L25.0392 26.0399C25.038 28.1279 23.3577 28.655 21.6297 28.654C21.1257 28.6538 20.4298 28.5574 19.6139 28.3889C21.0055 28.9897 25.1324 31.008 25.1307 34.152C25.1292 36.84 23.0891 37.0548 21.0491 37.0537C21.1691 37.0538 21.2651 37.0538 21.2891 36.9338C20.2569 37.3653 13.3193 40.2894 10.4866 41.5359C8.92623 42.183 8.20671 41.3186 8.23163 39.6626L8.23425 34.9346C8.23537 32.9186 9.43603 31.7193 11.5716 32.4165C16.1788 33.931 24.7211 36.9357 24.7228 33.9357ZM20.2331 36.9573C18.5053 36.7163 16.2256 36.043 14.306 35.442C9.26686 33.8312 8.73929 33.0629 8.61774 35.8468L8.61561 39.6868C8.61524 40.3588 8.71091 40.9589 9.07076 41.2231C9.40663 41.4633 9.88667 41.3915 10.6789 41.032C13.1275 39.9053 17.9766 37.892 20.2331 36.9573ZM12.7761 24.4251L12.8241 24.4011C18.0791 26.1321 24.6302 27.7437 24.632 24.4797L24.6577 21.5757C24.6584 20.3037 24.1548 19.4394 22.8345 20.1107C20.1219 21.1652 14.8646 23.4903 12.7761 24.4251ZM25.0461 13.6171L25.0419 21.1771L24.7059 21.1769C24.6587 19.7609 24.635 19.0889 23.5556 18.1043C23.0998 17.72 21.8522 16.9513 21.7323 16.8793L19.5729 15.7021C18.5157 17.8375 16.6191 18.9644 14.4591 18.9632C10.9071 18.9613 8.24464 16.1998 8.24802 10.1038L8.25081 5.0638L8.58681 5.06399C8.58681 5.06399 8.6102 6.168 8.70603 6.48005C8.84972 7.03213 9.18562 7.22432 9.64158 7.29657C9.95354 7.36874 10.5295 7.36906 10.9855 7.36932L21.9055 7.37537C22.5295 7.37572 23.3455 7.37617 23.6576 7.30434C24.1136 7.2326 24.4497 7.04078 24.594 6.48886C24.6902 6.17692 24.7148 5.07293 24.7148 5.07293L25.0508 5.07312L25.0471 11.7691L24.7351 11.7689L24.4964 9.36881L23.5364 9.39228L8.63242 9.38401L8.63202 10.104C8.6302 13.392 10.3562 16.945 14.4362 16.9472C16.0922 16.9482 17.6286 16.325 18.6852 15.1736L19.3577 14.238C19.8142 13.4222 20.0787 12.4144 20.0794 11.2624L20.0797 10.7344L20.4637 10.7346L20.4632 11.5026C20.4628 12.2706 20.3904 12.9665 20.2701 13.6145L24.5167 16.0168L24.7101 13.6169L25.0461 13.6171Z" fill="#FFE600"/>
<path d="M1.08838 98.6864L1.08838 0.994133" stroke="#FFE600" stroke-width="2" stroke-linecap="square"/>
<path d="M32.6001 98.9019L32.6001 1.00018" stroke="#FFE600" stroke-width="2" stroke-linecap="square"/>
</svg>
